<svg width="382.18109" height="300.23621" xmlns="http://www.w3.org/2000/svg">
 <metadata id="metadata34">image/svg+xml</metadata>

 <g>
  <title>background</title>
  <rect fill="none" id="canvas_background" height="302.23621" width="384.18109" y="-1" x="-1"/>
 </g>
 <g>
  <title>Layer 1</title>
  <path fill="#202f85" fill-rule="evenodd" id="path6" d="m84.2342,290.1471c4.2883,4.2191 7.9339,2.4747 19.9749,2.3695c242.4532,-2.1115 169.3443,15.6654 170.2063,-50.8632c0.4195,-32.4099 -38.7204,-19.148 -67.0768,-21.6779c-0.6094,-5.3737 0.2254,-8.6525 -1.6974,-13.1103c-3.4903,-8.0915 -2.4741,0.5959 -4.8781,-7.8264l-0.3509,-141.9511c0.028,-18.1282 1.5542,-38.2893 -18.1302,-38.0795c-20.4451,0.2182 -17.3814,21.1546 -17.3712,39.9826l0.003,114.1974c0.004,43.3035 -1.0324,21.0388 -5.8864,35.5153c-1.1625,3.4685 -0.9006,7.6235 -1.2501,11.3919c-26.2154,1.2622 -66.8871,-9.0238 -66.8871,19.7076c0,35.2992 -15.7136,42.8402 -6.6558,50.3441l-0.0002,0zm45.625,-7.9704c12.1323,-0.1438 10.0883,3.1456 10.9384,-10.1861c0.4337,-6.7878 1.1639,-13.8288 0.5235,-20.4511c-8.4671,0.8085 -8.6306,4.6279 -11.4619,30.6372zm97.7763,-0.3172l10.459,0.1102c-1.0346,-6.5239 -2.1067,-12.3188 -3.2193,-18.7222c-1.766,-10.1648 0.068,-11.4911 -8.6094,-11.4849l1.3697,30.0969zm-49.9274,0.4487l9.9167,-0.0207l-2.6765,-31.1474c-6.6708,2.5016 -5.3603,2.1277 -6.0245,10.4769c-0.5485,6.8808 -1.0187,13.7959 -1.2157,20.6912zm85.5765,0.0652c-1.2804,-8.1553 -2.8477,-10.8009 -5.1236,-18.7948c-2.9866,-10.4928 -0.1667,-12.3509 -10.4763,-11.7114c0.4575,5.4995 2.1883,11.0478 3.5419,16.6082c3.0668,12.6006 0.2344,12.7338 12.058,13.898zm-60.0511,-0.5139l10.459,0.1102c-1.0352,-6.5239 -2.1067,-12.3188 -3.2199,-18.7222c-1.7654,-10.1648 0.0683,-11.4911 -8.6088,-11.4849l1.3697,30.0969zm-101.5659,0.4487c11.5273,-0.7549 8.8636,0.4929 11.7635,-11.4472c1.6752,-6.8964 3.7661,-12.5742 3.7063,-19.2826c-9.713,0.335 -10.1189,7.0211 -15.4698,30.7298zm50.0255,-0.1315c12.1317,-0.1438 10.0882,3.1456 10.9386,-10.1861c0.4332,-6.7878 1.1639,-13.8288 0.523,-20.4511c-8.4674,0.8085 -8.6309,4.6279 -11.4616,30.6372zm29.1609,-254.0401l2.8346,0c3.1181,0 5.6693,2.5511 5.6693,5.6693l0,164.4094l-14.1732,0l0,-164.4094c0,-3.1182 2.5511,-5.6693 5.6693,-5.6693z"/>
  <path fill="#202f85" fill-rule="evenodd" id="path8" d="m70.0669,101.536l26.2956,0c2.2533,0 4.0966,1.8434 4.0966,4.0967l0,14.4686l-30.3922,0l0,-18.5653zm-11.296,73.7723c-6.8718,6.5259 -10.6742,7.0857 -17.3906,14.957c-19.8283,23.239 -13.7874,82.5437 4.6225,102.1158l29.1277,0.1585c-0.0944,-13.8538 3.2476,-18.4485 7.3051,-30.8279c4.3824,-13.3699 -0.0575,-20.6805 3.6304,-32.5151c6.2098,-19.929 34.2963,-15.5503 57.4083,-14.9746c1.008,-16.0064 -18.0893,-45.6554 -25.9707,-56.2323c-15.9041,-21.3426 -5.7957,-43.2604 -15.2155,-68.3609c7.7819,-1.188 15.4264,-0.4609 21.0994,-3.9376c6.3768,-10.1803 -8.3104,-21.0075 -15.3893,-24.8043c-17.3568,-9.3089 -39.4436,-5.4927 -59.419,-4.9056c-22.3155,0.6545 -15.4786,-0.6537 -17.7299,3.5858c-1.434,2.7 -1.2016,16.7448 0.3039,19.1639c2.7431,4.4085 11.7295,2.742 18.3756,2.9143c-2.1521,7.8625 -4.7291,14.0261 -8.7381,20.5489c-4.4461,7.2338 -10.0533,10.194 -8.6304,19.1696c15.6107,-1.235 22.5542,-17.8452 31.8751,-27.0028c-0.0536,7.0733 -1.8896,26.9206 -0.9309,30.539c1.8436,6.9602 4.3049,4.294 3.3528,10.9579c-2.7576,19.285 1.2172,6.319 -2.7312,26.7956c-2.0236,10.4939 2.8451,5.2473 -4.9552,12.6548z"/>
  <path fill="#202f85" fill-rule="evenodd" id="path10" d="m222.4836,173.1879c0.1448,8.0258 0.7648,7.0175 10.9518,6.9376c6.4063,-0.0509 12.8027,-0.2174 19.2446,-0.2181c17.1866,-0.001 107.7405,2.2136 110.6767,-2.6053c5.7176,-9.3848 -22.9122,-6.3784 -28.835,-6.3672c-20.8167,0.0398 -104.5935,-2.5692 -112.0381,2.253zm124.0185,31.0324c-15.0136,-3.1859 -17.5482,11.5051 -19.2886,26.3339c-0.8825,7.5146 -7.8754,41.2034 -3.8117,45.6515c15.8595,17.3623 23.4737,-70.4571 23.1003,-71.9854zm-106.3294,-45.9644l105.5077,-0.025c-9.468,-60.8874 -95.4308,-63.8853 -105.5077,0.025zm-13.0403,-0.9041c-13.7702,3.5119 -23.811,9.8139 -16.7752,25.6613c4.0878,9.2066 6.4244,2.6553 9.1987,13.6713c1.7663,7.0139 0.8739,9.7824 3.8039,17.4075c24.3941,0.5671 51.6415,-5.702 56.3887,17.4421c2.8244,13.7677 -1.5423,17.3346 4.2777,34.0459c4.4096,12.6594 5.3295,13.1759 5.7525,26.4047c12.2496,1.7999 46.7087,2.1829 55.2692,-3.5922c9.7177,-6.5547 10.8935,-32.1607 13.5825,-47.3362c1.6099,-9.0863 2.873,-16.9181 4.4443,-25.8627c0.8075,-4.5973 1.3798,-8.4408 2.1199,-13.0947c2.9223,-18.3694 6.9594,-8.6666 10.631,-20.0786c2.7253,-8.4697 0.6915,-17.0615 -7.5427,-21.5505l-9.7802,-4.4112c-10.5456,-75.2743 -118.5509,-79.0419 -131.3703,1.2933z"/>
  <path fill="#202f85" fill-rule="evenodd" id="path12" d="m16.6964,148.882c-4.2457,0 -7.6876,3.4418 -7.6876,7.6876c0,4.2458 3.4419,7.6876 7.6876,7.6876c4.2458,0 7.6877,-3.4418 7.6877,-7.6876c0,-4.2458 -3.4419,-7.6876 -7.6877,-7.6876z"/>
  <path fill="#202f85" fill-rule="evenodd" id="path14" d="m130.4212,110.854c-5.1372,0 -9.3017,4.1645 -9.3017,9.3017c0,5.1372 4.1645,9.3017 9.3017,9.3017c5.1372,0 9.3017,-4.1645 9.3017,-9.3017c0,-5.1372 -4.1645,-9.3017 -9.3017,-9.3017z"/>
  <path fill="#202f85" fill-rule="evenodd" id="path16" d="m78.9005,6.2835c-7.421,0 -13.4369,6.0159 -13.4369,13.4369c0,7.421 6.0159,13.4369 13.4369,13.4369c7.421,0 13.4369,-6.0159 13.4369,-13.4369c0,-7.421 -6.0159,-13.4369 -13.4369,-13.4369z"/>
  <path fill="#202f85" fill-rule="evenodd" id="path18" d="m22.9168,66.0833c-2.2437,1.6448 -16.2017,1.2003 -18.2015,0.2685c0.4162,-3.9847 3.8246,-2.6108 14.6381,-2.6129c2.2773,-0.0006 3.528,0.1356 3.5634,2.3444z"/>
  <path fill="#202f85" fill-rule="evenodd" id="path20" d="m22.881,60.562c-2.3391,1.5596 -5.3764,-0.7683 -8.8584,-2.3341c-3.0253,-1.4891 -6.6261,-1.9639 -6.627,-5.1718c2.5355,-1.4441 5.4463,0.876 8.2033,2.3104c5.8282,3.032 6.6757,2.2024 7.2821,5.1955z"/>
  <path fill="#202f85" fill-rule="evenodd" id="path22" d="m7.3088,77.8371c0.3036,-3.0415 2.1256,-2.9046 6.8994,-5.1936c1.944,-0.9321 7.3601,-4.9852 8.6324,-2.2548c1.0375,2.2266 -13.199,8.7127 -15.5318,7.4484z"/>
 </g>
</svg>