<svg width="100" height="100" viewBox="0 0 100 100" fill="none" xmlns="http://www.w3.org/2000/svg">
<circle cx="50" cy="50" r="50" fill="white"/>
<mask id="path-2-inside-1" fill="white">
<path d="M28 73.5C28 70.9392 28.5561 68.4035 29.6366 66.0377C30.7171 63.6718 32.3007 61.5222 34.2972 59.7114C36.2937 57.9007 38.6638 56.4643 41.2723 55.4843C43.8808 54.5044 46.6766 54 49.5 54C52.3234 54 55.1192 54.5044 57.7277 55.4843C60.3362 56.4643 62.7063 57.9007 64.7028 59.7114C66.6993 61.5222 68.2829 63.6718 69.3634 66.0377C70.4439 68.4035 71 70.9392 71 73.5L49.5 73.5H28Z"/>
</mask>
<path d="M28 73.5C28 70.9392 28.5561 68.4035 29.6366 66.0377C30.7171 63.6718 32.3007 61.5222 34.2972 59.7114C36.2937 57.9007 38.6638 56.4643 41.2723 55.4843C43.8808 54.5044 46.6766 54 49.5 54C52.3234 54 55.1192 54.5044 57.7277 55.4843C60.3362 56.4643 62.7063 57.9007 64.7028 59.7114C66.6993 61.5222 68.2829 63.6718 69.3634 66.0377C70.4439 68.4035 71 70.9392 71 73.5L49.5 73.5H28Z" fill="white" stroke="#0C7FA6" stroke-width="2" mask="url(#path-2-inside-1)"/>
<path d="M49.5 73V64" stroke="#0C7FA6"/>
<line y1="-0.5" x2="12.059" y2="-0.5" transform="matrix(-0.693353 -0.720598 0.782504 -0.622646 50.0972 64.7586)" stroke="#0C7FA6"/>
<line y1="-0.5" x2="12.059" y2="-0.5" transform="matrix(-0.693353 0.720598 0.782504 0.622646 58.4583 56.069)" stroke="#0C7FA6"/>
<circle cx="46" cy="69" r="1" fill="#0C7FA6"/>
<path d="M62 35.5C62 37.2844 61.5796 38.5371 60.8872 39.4335C60.193 40.3322 59.1829 40.928 57.9006 41.3175C55.5801 42.0224 52.5262 42.0129 49.2165 42.0025C48.8145 42.0013 48.4087 42 48 42C47.5809 42 47.171 42.0014 46.7703 42.0028C45.3767 42.0076 44.0948 42.012 42.9257 41.9553C41.4203 41.8823 40.1523 41.7093 39.1288 41.3275C38.1195 40.951 37.357 40.3754 36.836 39.4864C36.3077 38.5848 36 37.3135 36 35.5C36 28.3203 41.8203 22.5 49 22.5C56.1797 22.5 62 28.3203 62 35.5Z" fill="white" stroke="#0C7FA6"/>
<path d="M60 39.2989C60 45.3741 55.0751 50.2989 49 50.2989C42.9249 50.2989 38 45.3741 38 39.2989C38 36.3212 39.3866 34.4811 41.4289 33.3551C43.5086 32.2084 46.2848 31.7989 49 31.7989C51.7152 31.799 54.4914 32.2084 56.5711 33.3551C58.6134 34.4811 60 36.3212 60 39.2989Z" fill="white" stroke="#0C7FA6"/>
</svg>
