<?xml version="1.0" encoding="UTF-8"?> <svg xmlns="http://www.w3.org/2000/svg" width="171" height="171" viewBox="0 0 171 171" fill="#0fa7d9"> <g filter="url(#filter0_i)"> <circle cx="85.5" cy="85.5" r="85.5" fill="white"></circle> </g> <path d="M94.5288 89.5683C103.611 89.5683 111 82.1789 111 73.0963C111 64.0136 103.611 56.6243 94.5288 56.6243H67.7657C67.1612 56.6243 66.6719 57.1136 66.6719 57.7181C66.6719 58.3227 67.1612 58.812 67.7657 58.812H73.1315L73.0804 87.3806H67.7832C67.1787 87.3806 66.6894 87.8706 66.6894 88.4745C66.6894 89.0783 67.1787 89.5683 67.7832 89.5683H73.0768L73.0622 97.6278H67.765C67.1605 97.6278 66.6711 98.1179 66.6711 98.7217C66.6711 99.3255 67.1605 99.8156 67.765 99.8156H73.0578L73.0286 116.28C73.0279 116.884 73.5165 117.374 74.121 117.376C74.121 117.376 74.1218 117.376 74.1225 117.376C74.7256 117.376 75.2156 116.887 75.2164 116.284L75.2455 99.8156H95.6284C96.2323 99.8156 96.7223 99.3255 96.7223 98.7217C96.7223 98.1179 96.2323 97.6278 95.6284 97.6278H75.2506L75.2652 89.5683H94.5288V89.5683ZM75.3192 58.812H94.5288C102.405 58.812 108.812 65.2205 108.812 73.097C108.812 80.9728 102.405 87.3806 94.5288 87.3806H75.2689L75.3192 58.812Z" fill="#0FA7D9"></path> <defs> <filter id="filter0_i" x="0" y="0" width="171" height="171" filterUnits="userSpaceOnUse" color-interpolation-filters="sRGB"> <feFlood flood-opacity="0" result="BackgroundImageFix"></feFlood> <feBlend mode="normal" in="SourceGraphic" in2="BackgroundImageFix" result="shape"></feBlend> <feColorMatrix in="SourceAlpha" type="matrix" values="0 0 0 0 0 0 0 0 0 0 0 0 0 0 0 0 0 0 127 0" result="hardAlpha"></feColorMatrix> <feOffset></feOffset> <feGaussianBlur stdDeviation="5"></feGaussianBlur> <feComposite in2="hardAlpha" operator="arithmetic" k2="-1" k3="1"></feComposite> <feColorMatrix type="matrix" values="0 0 0 0 0 0 0 0 0 0 0 0 0 0 0 0 0 0 0.15 0"></feColorMatrix> <feBlend mode="normal" in2="shape" result="effect1_innerShadow"></feBlend> </filter> </defs> </svg> 
