<?xml version="1.0" encoding="UTF-8"?> <svg xmlns="http://www.w3.org/2000/svg" width="171" height="171" viewBox="0 0 171 171" fill="#0fa7d9"> <g filter="url(#filter0_i)"> <circle cx="85.5" cy="85.5" r="85.5" fill="white"></circle> </g> <path d="M92.2904 72.3565C92.407 72.3014 92.5141 72.2281 92.6076 72.1394L112.641 52.1057C112.863 51.8683 112.983 51.5544 112.977 51.23C112.972 50.9056 112.84 50.5961 112.611 50.3667C112.381 50.1373 112.072 50.0059 111.747 50.0002C111.423 49.9945 111.109 50.1149 110.872 50.3361L90.838 70.3698C90.7404 70.4723 90.6614 70.5909 90.6043 70.7204C85.4205 66.5383 77.574 67.0809 72.5238 72.1645L46.7387 91.2884C46.5955 91.3948 46.4768 91.5306 46.3903 91.6867C46.3039 91.8428 46.2519 92.0155 46.2376 92.1934C46.2234 92.3712 46.2473 92.55 46.3079 92.7179C46.3684 92.8857 46.464 93.0387 46.5885 93.1665L70.5371 117.624C70.6536 117.743 70.7926 117.838 70.9459 117.902C71.0993 117.967 71.2639 118 71.4303 118H71.5305C71.7141 117.986 71.8923 117.931 72.0525 117.841C72.2126 117.75 72.3508 117.625 72.457 117.474L91.656 90.4536C92.8959 89.1803 93.8719 87.6745 94.528 86.0228C95.1841 84.3711 95.5073 82.6061 95.4791 80.8291C95.452 77.7166 94.3222 74.7145 92.2904 72.3565V72.3565ZM71.2801 114.803L64.8108 108.2C64.901 108.155 64.9851 108.099 65.0612 108.033L76.7476 96.3469C76.9688 96.1095 77.0892 95.7956 77.0835 95.4712C77.0777 95.1468 76.9463 94.8373 76.7169 94.6079C76.4875 94.3785 76.178 94.2471 75.8536 94.2414C75.5292 94.2356 75.2153 94.3561 74.9779 94.5772L63.2916 106.264C63.2327 106.335 63.1822 106.414 63.1414 106.497L57.39 100.654C57.4457 100.622 57.4988 100.586 57.5486 100.546L69.2349 88.8593C69.4561 88.6219 69.5765 88.308 69.5708 87.9836C69.5651 87.6592 69.4337 87.3497 69.2043 87.1203C68.9749 86.8909 68.6654 86.7595 68.341 86.7538C68.0166 86.748 67.7027 86.8684 67.4653 87.0896L55.779 98.776C55.7453 98.8183 55.7146 98.8629 55.6871 98.9095L49.3848 92.4486L73.3586 74.6854L88.7511 90.0863H88.8012L71.2801 114.803ZM90.3371 88.0913L75.3118 73.066C79.6775 69.51 85.913 69.5184 89.7779 73.283C90.7906 74.2684 91.5976 75.4451 92.1521 76.7447C92.7066 78.0444 92.9977 79.4412 93.0083 80.8541C93.033 83.5246 92.0833 86.1125 90.3371 88.133V88.0913Z" fill="#0FA7D9"></path> <path d="M112.099 73.6086C112.782 74.6489 113.213 75.8341 113.358 77.0701C113.503 78.3061 113.357 79.5589 112.934 80.729C111.264 85.3033 105.855 87.7825 100.846 86.2382C100.529 86.1408 100.185 86.1736 99.8919 86.3294C99.5984 86.4851 99.3788 86.7511 99.2814 87.0688C99.184 87.3865 99.2167 87.7299 99.3725 88.0234C99.5283 88.3169 99.7942 88.5365 100.112 88.6339C101.329 89.0068 102.595 89.1953 103.868 89.1932C108.877 89.1932 113.61 86.2382 115.296 81.572C115.851 80.0385 116.042 78.3966 115.852 76.7766C115.662 75.1566 115.097 73.6032 114.202 72.2397C114.113 72.1015 113.997 71.9824 113.862 71.889C113.727 71.7955 113.574 71.7297 113.413 71.6952C113.252 71.6607 113.086 71.6582 112.925 71.6879C112.763 71.7176 112.608 71.7789 112.47 71.8682C112.332 71.9575 112.213 72.0732 112.12 72.2086C112.026 72.344 111.96 72.4965 111.926 72.6573C111.891 72.8182 111.889 72.9842 111.918 73.146C111.948 73.3078 112.009 73.4622 112.099 73.6003V73.6086Z" fill="#0FA7D9"></path> <path d="M118.017 93.4503C117.862 93.3947 117.698 93.3702 117.533 93.3783C117.368 93.3864 117.207 93.4269 117.058 93.4974C116.909 93.568 116.776 93.6673 116.665 93.7895C116.555 93.9118 116.47 94.0546 116.415 94.2099C115.964 95.3969 115.261 96.4721 114.354 97.3613C113.448 98.2504 112.359 98.9324 111.164 99.3603C106.339 101.213 100.738 99.2434 98.6846 94.9779C98.6184 94.822 98.5213 94.6811 98.399 94.5638C98.2768 94.4465 98.132 94.3553 97.9735 94.2955C97.815 94.2358 97.646 94.2089 97.4768 94.2164C97.3075 94.2239 97.1416 94.2656 96.989 94.3391C96.8363 94.4126 96.7002 94.5163 96.5888 94.6439C96.4774 94.7716 96.3931 94.9205 96.3409 95.0816C96.2887 95.2428 96.2698 95.4129 96.2853 95.5815C96.3007 95.7502 96.3502 95.914 96.4308 96.063C98.3758 100.112 102.8 102.549 107.424 102.549C109.007 102.556 110.577 102.273 112.057 101.714C113.587 101.15 114.976 100.261 116.129 99.108C117.282 97.9551 118.171 96.566 118.735 95.0363C118.845 94.7305 118.831 94.3941 118.697 94.0981C118.563 93.8022 118.319 93.5699 118.017 93.4503Z" fill="#0FA7D9"></path> <path d="M109.745 110.562C108.658 111.378 107.417 111.965 106.097 112.288C104.777 112.61 103.406 112.662 102.065 112.441C100.809 112.248 99.6035 111.809 98.5187 111.147C97.434 110.485 96.4916 109.614 95.7463 108.584C95.1104 107.693 94.6607 106.684 94.424 105.615C94.1874 104.547 94.1686 103.441 94.369 102.365C94.3991 102.204 94.3971 102.038 94.3631 101.877C94.3291 101.716 94.2637 101.563 94.1707 101.427C94.0777 101.292 93.9588 101.176 93.821 101.086C93.6832 100.996 93.529 100.935 93.3673 100.905C93.2056 100.874 93.0396 100.876 92.8787 100.91C92.7177 100.944 92.5651 101.01 92.4295 101.103C92.2938 101.196 92.1778 101.315 92.0881 101.453C91.9984 101.59 91.9367 101.745 91.9065 101.906C91.6448 103.31 91.6688 104.752 91.9772 106.146C92.2855 107.54 92.8719 108.858 93.7012 110.02C94.6389 111.321 95.8258 112.422 97.1928 113.261C98.5599 114.099 100.08 114.657 101.665 114.903C102.338 115.013 103.019 115.069 103.701 115.07C106.428 115.081 109.083 114.202 111.264 112.566C111.404 112.47 111.523 112.346 111.614 112.203C111.704 112.059 111.765 111.898 111.792 111.731C111.818 111.563 111.811 111.392 111.769 111.227C111.727 111.063 111.653 110.908 111.55 110.773C111.446 110.638 111.317 110.526 111.169 110.443C111.021 110.359 110.858 110.307 110.689 110.289C110.52 110.271 110.349 110.287 110.187 110.337C110.025 110.387 109.874 110.469 109.745 110.579V110.562Z" fill="#0FA7D9"></path> <defs> <filter id="filter0_i" x="0" y="0" width="171" height="171" filterUnits="userSpaceOnUse" color-interpolation-filters="sRGB"> <feFlood flood-opacity="0" result="BackgroundImageFix"></feFlood> <feBlend mode="normal" in="SourceGraphic" in2="BackgroundImageFix" result="shape"></feBlend> <feColorMatrix in="SourceAlpha" type="matrix" values="0 0 0 0 0 0 0 0 0 0 0 0 0 0 0 0 0 0 127 0" result="hardAlpha"></feColorMatrix> <feOffset></feOffset> <feGaussianBlur stdDeviation="5"></feGaussianBlur> <feComposite in2="hardAlpha" operator="arithmetic" k2="-1" k3="1"></feComposite> <feColorMatrix type="matrix" values="0 0 0 0 0 0 0 0 0 0 0 0 0 0 0 0 0 0 0.15 0"></feColorMatrix> <feBlend mode="normal" in2="shape" result="effect1_innerShadow"></feBlend> </filter> </defs> </svg> 
