<?xml version="1.0" encoding="UTF-8"?> <svg xmlns="http://www.w3.org/2000/svg" width="171" height="171" viewBox="0 0 171 171" fill="#0fa7d9"> <g filter="url(#filter0_i)"> <circle cx="85.5" cy="85.5" r="85.5" fill="white"></circle> </g> <path d="M112.177 52.5911H59.2595C58.6185 52.5911 58.0996 53.1099 58.0996 53.7509V116.84C58.0996 117.48 58.6185 118 59.2595 118H112.178C112.818 118 113.337 117.48 113.337 116.84V53.7509C113.337 53.1099 112.817 52.5911 112.177 52.5911ZM111.017 115.68H60.4193V54.9108H111.018L111.017 115.68Z" fill="#0FA7D9"></path> <path d="M66.4467 77.5619H105.341C105.982 77.5619 106.5 77.0423 106.5 76.4021V60.5824C106.5 59.9414 105.982 59.4225 105.341 59.4225H66.4467C65.8057 59.4225 65.2869 59.9414 65.2869 60.5824V76.4013C65.2869 77.0423 65.8057 77.5619 66.4467 77.5619ZM67.6066 61.743H104.181V75.2422H67.6066C67.6066 75.2422 67.6066 61.743 67.6066 61.743Z" fill="#0FA7D9"></path> <path d="M74.7311 83.2073H66.8549C66.2139 83.2073 65.6951 83.727 65.6951 84.3672V92.2442C65.6951 92.8844 66.2139 93.404 66.8549 93.404H74.7311C75.3721 93.404 75.891 92.8844 75.891 92.2442V84.3672C75.891 83.727 75.3714 83.2073 74.7311 83.2073ZM73.5713 91.0843H68.0148V85.5271H73.5713V91.0843Z" fill="#0FA7D9"></path> <path d="M74.7311 98.4695H66.8549C66.2139 98.4695 65.6951 98.9892 65.6951 99.6294V107.506C65.6951 108.146 66.2139 108.665 66.8549 108.665H74.7311C75.3721 108.665 75.891 108.146 75.891 107.506V99.6294C75.891 98.9884 75.3714 98.4695 74.7311 98.4695ZM73.5713 106.346H68.0148V100.788H73.5713V106.346Z" fill="#0FA7D9"></path> <path d="M104.931 83.2073H97.0559C96.4148 83.2073 95.896 83.727 95.896 84.3672V92.2442C95.896 92.8844 96.4148 93.404 97.0559 93.404H104.932C105.573 93.404 106.092 92.8844 106.092 92.2442V84.3672C106.091 83.727 105.572 83.2073 104.931 83.2073ZM103.771 91.0843H98.2157V85.5271H103.772L103.771 91.0843Z" fill="#0FA7D9"></path> <path d="M104.931 98.4695H97.0559C96.4148 98.4695 95.896 98.9892 95.896 99.6294V107.506C95.896 108.146 96.4148 108.665 97.0559 108.665H104.932C105.573 108.665 106.092 108.146 106.092 107.506V99.6294C106.091 98.9884 105.572 98.4695 104.931 98.4695ZM103.771 106.346H98.2157V100.788H103.772L103.771 106.346Z" fill="#0FA7D9"></path> <path d="M90.0899 82.9484H82.216C81.575 82.9484 81.0562 83.468 81.0562 84.1082V91.9852C81.0562 92.6254 81.575 93.1451 82.216 93.1451H90.0899C90.7309 93.1451 91.2498 92.6254 91.2498 91.9852V84.1082C91.2498 83.468 90.7301 82.9484 90.0899 82.9484ZM88.93 90.8253H83.3759V85.2681H88.93V90.8253Z" fill="#0FA7D9"></path> <path d="M90.0899 98.2097H82.216C81.575 98.2097 81.0562 98.7293 81.0562 99.3696V107.247C81.0562 107.888 81.575 108.407 82.216 108.407H90.0899C90.7309 108.407 91.2498 107.888 91.2498 107.247V99.3696C91.2498 98.7293 90.7301 98.2097 90.0899 98.2097ZM88.93 106.087H83.3759V100.529H88.93V106.087Z" fill="#0FA7D9"></path> <defs> <filter id="filter0_i" x="0" y="0" width="171" height="171" filterUnits="userSpaceOnUse" color-interpolation-filters="sRGB"> <feFlood flood-opacity="0" result="BackgroundImageFix"></feFlood> <feBlend mode="normal" in="SourceGraphic" in2="BackgroundImageFix" result="shape"></feBlend> <feColorMatrix in="SourceAlpha" type="matrix" values="0 0 0 0 0 0 0 0 0 0 0 0 0 0 0 0 0 0 127 0" result="hardAlpha"></feColorMatrix> <feOffset></feOffset> <feGaussianBlur stdDeviation="5"></feGaussianBlur> <feComposite in2="hardAlpha" operator="arithmetic" k2="-1" k3="1"></feComposite> <feColorMatrix type="matrix" values="0 0 0 0 0 0 0 0 0 0 0 0 0 0 0 0 0 0 0.15 0"></feColorMatrix> <feBlend mode="normal" in2="shape" result="effect1_innerShadow"></feBlend> </filter> </defs> </svg> 
