<svg width="100" height="100" viewBox="0 0 100 100" fill="none" xmlns="http://www.w3.org/2000/svg">
<circle cx="50" cy="50" r="50" fill="white"/>
<line y1="-0.5" x2="17.5588" y2="-0.5" transform="matrix(-0.756536 0.653952 -0.631544 -0.77534 75 25)" stroke="#0C7FA6"/>
<path d="M61.1381 52.9865C62.3011 51.9812 63.0829 51.0461 63.7839 49.6589C64.4849 48.2716 64.9138 46.7558 65.0462 45.1978C65.1785 43.6398 65.0116 42.0702 64.5551 40.5787C64.0986 39.0871 63.3613 37.7028 62.3855 36.5048C61.4097 35.3067 60.2143 34.3184 58.8677 33.5963C57.5211 32.8741 56.0496 32.4323 54.5372 32.296C53.0248 32.1597 51.5012 32.3316 50.0533 32.8019C48.6054 33.2722 47.2616 34.0316 46.0986 35.0369L53.5296 44.1598L61.1381 52.9865Z" fill="white" stroke="#0C7FA6"/>
<path d="M46.1094 35.1228L61.1381 52.9865L43.2193 71.4457L25.3004 48.8183L46.1094 35.1228Z" fill="white" stroke="#0C7FA6"/>
<line y1="-0.5" x2="14.047" y2="-0.5" transform="matrix(-0.756536 0.653952 -0.631544 -0.77534 42.2858 47.6274)" stroke="#0C7FA6"/>
<line y1="-0.5" x2="14.047" y2="-0.5" transform="matrix(-0.756536 0.653952 -0.631544 -0.77534 46.91 53.582)" stroke="#0C7FA6"/>
<path d="M63.1498 57.1093C68.4504 57.0257 70.4304 55.7482 72.1329 51.2001" stroke="#0C7FA6"/>
<path d="M60.9212 61.9183C65.3178 64.9695 67.6513 65.0864 71.571 62.3557" stroke="#0C7FA6"/>
<path d="M57.5146 65.4911C59.3227 70.6247 61.1415 72.1353 65.8704 72.3073" stroke="#0C7FA6"/>
</svg>
