<?xml version="1.0" encoding="UTF-8"?> <svg xmlns="http://www.w3.org/2000/svg" width="171" height="171" viewBox="0 0 171 171" fill="#0fa7d9"> <g filter="url(#filter0_i)"> <circle cx="85.5" cy="85.5" r="85.5" fill="white"></circle> </g> <path d="M85.4998 88.5882C78.2901 88.5968 71.3782 91.4646 66.2801 96.5627C61.1821 101.661 58.3143 108.573 58.3057 115.782C58.3057 116.105 58.434 116.415 58.6623 116.643C58.8907 116.872 59.2004 117 59.5233 117H111.476C111.799 117 112.109 116.872 112.337 116.643C112.566 116.415 112.694 116.105 112.694 115.782C112.685 108.573 109.817 101.661 104.719 96.5627C99.6214 91.4646 92.7095 88.5968 85.4998 88.5882V88.5882ZM95.7524 93.2558L85.4998 103.508L75.2472 93.2558C78.4668 91.7863 81.9647 91.0258 85.5038 91.0258C89.043 91.0258 92.5408 91.7863 95.7605 93.2558H95.7524ZM72.9824 94.4329L84.6393 106.09H84.688V114.565H60.7734C60.9796 110.46 62.2033 106.471 64.3346 102.956C66.4658 99.4421 69.4376 96.513 72.9824 94.4329V94.4329ZM87.1233 114.565V105.327L98.0172 94.4329C101.556 96.5169 104.521 99.4477 106.647 102.962C108.772 106.476 109.991 110.463 110.194 114.565H87.1233Z" fill="#0FA7D9"></path> <path d="M72.5117 77.2235C73.9622 79.5265 75.988 81.4116 78.3892 82.6931C80.7903 83.9745 83.4841 84.6079 86.2047 84.5308C88.9253 84.4538 91.5789 83.669 93.9037 82.2538C96.2286 80.8386 98.1444 78.8418 99.4623 76.4605H99.5353C101.313 75.6487 103.075 73.0267 103.294 72.702C104.445 70.9559 105.034 68.8994 104.982 66.8086C104.982 56.4342 96.2639 48 85.5568 48H85.4512C74.7359 48 66.0176 56.4342 66.0176 66.8086V70.7294C66.0169 71.5787 66.1869 72.4194 66.5173 73.2017C66.8478 73.984 67.3321 74.6919 67.9415 75.2834C69.1596 76.4925 70.7958 77.1871 72.5117 77.2235ZM85.7435 82.0941C83.2146 82.1046 80.7364 81.3847 78.6067 80.0211C76.477 78.6574 74.7862 76.7079 73.7375 74.4067C73.7227 74.2664 73.7227 74.1249 73.7375 73.9846L73.9485 73.8547C77.7313 71.5331 82.4315 68.6351 85.2077 65.9725C88.2193 63.0826 91.3528 59.5839 92.6841 58.074C94.578 59.2263 96.1439 60.8462 97.2314 62.778C98.3188 64.7099 98.8914 66.889 98.8941 69.1059C98.8683 72.5708 97.4694 75.884 95.0041 78.3189C92.5388 80.7537 89.2084 82.1114 85.7435 82.0941ZM68.4529 66.8086C68.4529 57.7412 76.0753 50.4353 85.4431 50.4353H85.5486C94.9245 50.4353 102.547 57.7412 102.547 66.8086C102.59 68.4221 102.127 70.0086 101.224 71.3464L101.151 71.46C101.648 68.2764 101.131 65.0171 99.6746 62.1429C98.2179 59.2688 95.8945 56.9254 93.0331 55.4439C92.7897 55.3168 92.5106 55.2758 92.2409 55.3273C91.9712 55.3789 91.7269 55.5201 91.5476 55.728C91.5476 55.7767 87.4401 60.5093 83.5761 64.2109C80.9541 66.6706 76.3757 69.5118 72.6984 71.7766L72.325 72.0039C71.949 72.2877 71.6558 72.667 71.476 73.1023C71.2961 73.5377 71.2361 74.0133 71.3022 74.4798C71.3022 74.4798 71.3022 74.5366 71.3022 74.5609C70.6914 74.3534 70.1361 74.0091 69.6786 73.5544C69.2946 73.1903 68.9881 72.7524 68.7775 72.267C68.5668 71.7815 68.4564 71.2586 68.4529 70.7294V66.8086Z" fill="#0FA7D9"></path> <path d="M80.2233 111.318C81.3441 111.318 82.2527 110.409 82.2527 109.288C82.2527 108.167 81.3441 107.259 80.2233 107.259C79.1024 107.259 78.1938 108.167 78.1938 109.288C78.1938 110.409 79.1024 111.318 80.2233 111.318Z" fill="#0FA7D9"></path> <defs> <filter id="filter0_i" x="0" y="0" width="171" height="171" filterUnits="userSpaceOnUse" color-interpolation-filters="sRGB"> <feFlood flood-opacity="0" result="BackgroundImageFix"></feFlood> <feBlend mode="normal" in="SourceGraphic" in2="BackgroundImageFix" result="shape"></feBlend> <feColorMatrix in="SourceAlpha" type="matrix" values="0 0 0 0 0 0 0 0 0 0 0 0 0 0 0 0 0 0 127 0" result="hardAlpha"></feColorMatrix> <feOffset></feOffset> <feGaussianBlur stdDeviation="5"></feGaussianBlur> <feComposite in2="hardAlpha" operator="arithmetic" k2="-1" k3="1"></feComposite> <feColorMatrix type="matrix" values="0 0 0 0 0 0 0 0 0 0 0 0 0 0 0 0 0 0 0.15 0"></feColorMatrix> <feBlend mode="normal" in2="shape" result="effect1_innerShadow"></feBlend> </filter> </defs> </svg> 
