<?xml version="1.0" encoding="UTF-8" standalone="no"?>
<svg
   xmlns:dc="http://purl.org/dc/elements/1.1/"
   xmlns:cc="http://creativecommons.org/ns#"
   xmlns:rdf="http://www.w3.org/1999/02/22-rdf-syntax-ns#"
   xmlns:svg="http://www.w3.org/2000/svg"
   xmlns="http://www.w3.org/2000/svg"
   xmlns:sodipodi="http://sodipodi.sourceforge.net/DTD/sodipodi-0.dtd"
   xmlns:inkscape="http://www.inkscape.org/namespaces/inkscape"
   version="1.1"
   width="751.18109"
   height="510.23621"
   id="svg28"
   viewBox="0 0 751.18109 510.23621"
   sodipodi:docname="1616075194682557.svg"
   inkscape:version="0.92.3 (2405546, 2018-03-11)">
  <metadata
     id="metadata34">
    <rdf:RDF>
      <cc:Work
         rdf:about="">
        <dc:format>image/svg+xml</dc:format>
        <dc:type
           rdf:resource="http://purl.org/dc/dcmitype/StillImage" />
        <dc:title></dc:title>
      </cc:Work>
    </rdf:RDF>
  </metadata>
  <defs
     id="defs32" />
  <sodipodi:namedview
     pagecolor="#ffffff"
     bordercolor="#666666"
     borderopacity="1"
     objecttolerance="10"
     gridtolerance="10"
     guidetolerance="10"
     inkscape:pageopacity="0"
     inkscape:pageshadow="2"
     inkscape:window-width="1280"
     inkscape:window-height="962"
     id="namedview30"
     showgrid="false"
     inkscape:zoom="1.3082349"
     inkscape:cx="319.29748"
     inkscape:cy="247.45553"
     inkscape:window-x="1358"
     inkscape:window-y="-8"
     inkscape:window-maximized="1"
     inkscape:current-layer="svg28" />
  <path
     d="m 108.3787,328.6721 0.6497,28.7214 h -4.6162 l -0.1707,-0.9944 c -1.0153,-5.9142 -3.4517,-11.16 -7.9242,-15.22 -3.8276,-3.475 -8.2794,-5.7053 -13.5105,-5.7053 -3.1385,0 -6.2328,0.6962 -8.6034,2.8633 -1.8842,1.7223 -3.0853,3.8024 -3.0853,6.4032 0,1.4397 0.3082,2.8088 1.0576,4.0453 1.2121,1.9995 3.1967,3.7077 5.0877,5.0434 1.3495,0.9533 2.9452,1.8102 4.3988,2.5951 2.6535,1.4332 5.3589,2.7884 8.0657,4.1182 6.1948,3.043 14.7489,7.6909 19.112,13.1751 3.3894,4.2605 5.0454,9.1437 5.0454,14.584 0,7.1354 -2.8874,13.0569 -8.1088,17.8753 -5.6971,5.2571 -12.7145,7.4452 -20.4083,7.4452 -2.4548,0 -4.9142,-0.2464 -7.3106,-0.7835 -2.8808,-0.6461 -5.8226,-1.7825 -8.5405,-2.9234 -1.2257,-0.5148 -2.7969,-1.0582 -4.1425,-1.0582 -0.9048,0 -1.7887,0.455 -2.5146,0.9581 -1.0803,0.7487 -1.8097,1.8958 -2.323,3.0847 l -0.3121,0.7223 h -4.0093 v -32.1761 h 4.1998 l 0.1956,0.9575 c 1.4065,6.8865 4.1717,13.697 9.4955,18.4896 4.2488,3.8251 9.1791,6.2844 14.9638,6.2844 3.5146,0 6.948,-0.8167 9.5952,-3.24 2.1853,-2.0001 3.4833,-4.3861 3.4833,-7.3763 0,-1.7156 -0.4876,-3.3219 -1.3329,-4.8093 -1.0361,-1.8235 -2.558,-3.3491 -4.2021,-4.6307 -1.2492,-0.9739 -2.6813,-1.8348 -4.0547,-2.6206 -2.1061,-1.2053 -4.2794,-2.3156 -6.4578,-3.3837 -3.1561,-1.5474 -6.2986,-3.1674 -9.3374,-4.9354 -2.1773,-1.2668 -4.3917,-2.6481 -6.3666,-4.2157 -3.0305,-2.4052 -5.6409,-5.2795 -7.5118,-8.6797 -1.8255,-3.3185 -2.6699,-6.9182 -2.6699,-10.703 0,-6.677 2.4834,-12.3288 7.2978,-16.9464 5.0638,-4.8569 11.3025,-6.9644 18.2809,-6.9644 2.6135,0 5.2123,0.2973 7.7448,0.9513 2.3454,0.6057 4.7055,1.6183 6.8873,2.6597 1.122,0.5355 3.7299,1.7496 4.9842,1.7496 0.5615,0 1.112,-0.1106 1.5083,-0.5341 0.6012,-0.6426 1.1523,-3.0322 1.3314,-3.8775 l 0.201,-0.949 z m 370.8717,0 v 29.7935 h -4.4061 l -0.2189,-0.9204 c -1.453,-6.1169 -4.1808,-11.8287 -9.1074,-15.8922 -4.3727,-3.6065 -9.3521,-5.4643 -15.0228,-5.4643 -4.7032,0 -8.9714,1.3575 -12.8395,4.036 -3.8982,2.6994 -6.7513,6.2359 -8.5703,10.6137 -2.5274,6.0812 -3.5614,12.5737 -3.5614,19.137 0,6.3995 0.731,12.8548 2.6078,18.9882 1.4775,4.8279 3.9153,9.4115 7.9521,12.5713 4.0204,3.1468 8.9974,4.2129 14.0142,4.2129 4.6009,0 8.9881,-0.9681 13.0615,-3.1178 4.8081,-2.5376 9.1649,-6.8687 12.6751,-10.9585 l 2.1056,-2.4534 v 10.5021 l -0.3306,0.3467 c -4.0546,4.2556 -8.7712,7.9784 -14.1874,10.3382 -5.4195,2.361 -11.357,3.2168 -17.2355,3.2168 -7.9939,0 -15.8102,-1.5041 -22.9464,-5.1968 -6.6827,-3.4583 -11.9248,-8.4677 -15.6033,-15.0313 -3.6199,-6.4593 -5.474,-13.394 -5.474,-20.7975 0,-7.8701 2.0993,-15.2249 6.0596,-22.0255 3.998,-6.8655 9.434,-12.3006 16.3749,-16.1682 6.7941,-3.7857 14.0899,-5.7305 21.867,-5.7305 6.175,0 12.2417,1.4522 17.9686,3.6961 1.2271,0.4807 5.0782,2.0219 6.3535,2.0219 0.9539,0 1.7173,-0.347 2.3899,-1.0193 0.8949,-0.8949 1.2589,-2.4602 1.4281,-3.6678 l 0.1443,-1.0309 z m -333.9949,31.7965 c 1.9652,-1.9259 4.1743,-3.7321 6.5369,-4.9408 2.7749,-1.4199 5.77,-2.0772 8.8844,-2.0772 3.3769,0 6.6572,0.72 9.4728,2.652 2.3051,1.5818 3.9538,3.7914 5.1472,6.2623 2.3479,-2.4789 5.0442,-4.8401 7.9985,-6.4459 2.9687,-1.6138 6.148,-2.4684 9.5264,-2.4684 3.4341,0 6.9545,0.6879 9.7262,2.8312 2.4163,1.8686 4.1182,4.2639 5.0709,7.1654 1.2472,3.7982 1.3703,9.1264 1.3703,13.1 v 22.2971 c 0,1.3413 0.0533,5.9607 0.9034,7.0798 0.7041,0.9703 2.8029,1.3564 3.8948,1.5021 l 1.0389,0.1386 v 4.2701 H 184.318 v -4.3169 l 1.0905,-0.0975 c 1.6183,-0.1446 3.0753,-0.6868 4.0116,-2.029 0.7982,-1.2082 0.8544,-5.1367 0.8544,-6.5472 v -23.4088 c 0,-1.9568 -0.0216,-3.9331 -0.1443,-5.8864 -0.0581,-0.927 -0.1327,-2.1643 -0.3804,-3.0388 -0.2654,-0.8764 -0.6934,-1.766 -1.4332,-2.3386 -0.6503,-0.5031 -1.3879,-0.7027 -2.206,-0.7027 -1.6035,0 -3.084,0.6863 -4.3667,1.6033 -1.8,1.2872 -3.3713,3.1184 -4.6812,4.913 v 28.859 c 0,1.3686 0.0428,5.5715 0.7869,6.7447 0.8626,1.3607 2.6754,1.7343 4.1675,1.8292 l 1.1211,0.0712 v 4.3455 h -30.5084 v -4.3569 l 1.133,-0.0606 c 0.9797,-0.0525 2.0889,-0.2605 2.8809,-0.8796 0.6134,-0.4793 1.0955,-1.0803 1.322,-1.8558 0.4224,-1.3525 0.3824,-4.4051 0.3824,-5.8377 v -23.4485 c 0,-1.9789 -0.0192,-3.9795 -0.1417,-5.955 -0.0533,-0.8555 -0.1244,-2.1422 -0.3796,-2.9608 -0.2871,-0.9198 -0.7537,-1.7331 -1.5281,-2.3221 -0.6579,-0.5006 -1.3782,-0.8082 -2.2136,-0.8082 -1.2937,0 -2.4897,0.3268 -3.5739,1.0358 -2.0172,1.3192 -3.8489,3.6 -5.2557,5.5905 v 28.8683 c 0,1.6308 0.0654,5.5304 0.9629,6.9709 0.684,1.1469 2.596,1.4862 3.7964,1.6064 l 1.0781,0.1078 v 4.3055 h -30.3892 v -4.2999 l 1.0718,-0.1128 c 1.4086,-0.1482 3.1096,-0.5618 4.0218,-1.7444 0.692,-0.8972 0.7436,-5.7067 0.7436,-6.8335 V 367.99 c 0,-1.3785 -0.0565,-5.9122 -0.8978,-7.0526 -0.7367,-0.9981 -2.7657,-1.3779 -3.9005,-1.5293 l -1.0389,-0.1386 v -4.2701 h 24.5518 z m 104.7464,44.3117 c -4.7795,3.9691 -10.8661,7.7695 -17.0938,7.7695 -3.316,0 -6.2402,-1.0619 -8.6054,-3.4041 -2.3372,-2.3145 -3.4322,-5.2161 -3.4322,-8.4949 0,-4.8419 2.2422,-8.8271 5.7435,-12.0756 2.4682,-2.2898 5.821,-4.3021 8.7421,-5.9564 4.6006,-2.6056 9.4181,-4.9417 14.224,-7.1564 v -4.6927 c 0,-1.5531 0.0122,-5.868 -0.5814,-7.2794 -0.402,-0.9558 -1.2206,-1.6877 -2.0795,-2.2331 -1.0857,-0.6894 -2.2828,-1.0046 -3.5677,-1.0046 -1.9443,0 -3.9461,0.3495 -5.5729,1.4748 -0.4983,0.3447 -0.993,0.8093 -0.993,1.4579 0,0.6644 0.915,1.7609 1.3252,2.2221 1.3895,1.5619 2.5067,3.4724 2.5067,5.6205 0,2.2504 -0.8615,4.1797 -2.503,5.7178 -1.7603,1.6494 -3.9691,2.3289 -6.3581,2.3289 -2.6053,0 -4.9777,-0.7648 -6.9316,-2.5072 -1.7986,-1.6036 -2.8822,-3.625 -2.8822,-6.056 0,-3.3627 1.4261,-6.2903 3.6116,-8.7894 2.5976,-2.9704 6.0675,-4.9118 9.7648,-6.1812 4.1173,-1.4136 8.3848,-2.0902 12.7383,-2.0902 4.4997,0 9.237,0.8058 12.9535,3.5044 2.7008,1.961 5.1644,4.472 6.2909,7.7023 0.4224,1.283 0.5666,2.9639 0.6647,4.3076 0.1761,2.4077 0.2092,4.8514 0.2092,7.2649 v 21.0656 c 0,0.9607 -0.0357,3.4155 0.2435,4.3087 0.089,0.2849 0.237,0.6585 0.4493,0.8291 0.1885,0.1412 0.3753,0.2172 0.612,0.2172 0.8419,0 1.7283,-1.0214 2.1895,-1.6189 l 0.7316,-0.9485 3.5839,2.7698 -0.6291,0.9306 c -1.6922,2.5038 -3.808,4.9983 -6.3918,6.6177 -2.3411,1.4675 -4.9431,2.1487 -7.704,2.1487 -2.8565,0 -5.809,-0.5873 -8.0541,-2.4625 -1.6747,-1.3986 -2.6577,-3.2709 -3.2045,-5.307 z M 304.06,364.6426 c 2.1705,-3.0997 4.8174,-6.3505 7.5736,-8.225 2.5166,-1.7116 5.3864,-2.967 8.4761,-2.967 2.3066,0 4.4365,0.6947 6.0611,2.3689 1.703,1.7552 2.2836,4.1045 2.2836,6.4922 0,2.4443 -0.5335,4.9396 -2.1824,6.8241 -1.4369,1.6418 -3.2562,2.5529 -5.4477,2.5529 -2.3034,0 -4.3619,-0.7402 -6.0922,-2.2644 -0.6386,-0.5623 -1.7393,-1.6183 -2.4468,-2.0537 l -0.0151,-0.008 -0.0232,-0.0139 c -0.2239,-0.1343 -0.4536,-0.1868 -0.7146,-0.1868 -0.9176,0 -1.7141,0.404 -2.4035,0.9873 -1.5843,1.3402 -2.5869,3.1714 -3.2304,5.1202 -1.2838,3.8895 -1.7991,7.9833 -1.7861,12.0694 l 0.04,12.4926 v 3.276 c 0,0.7917 0.005,3.0945 0.3172,3.8111 0.3223,0.7405 0.8064,1.3428 1.5253,1.7218 1.0545,0.5553 3.0025,0.7132 4.1732,0.777 l 1.1318,0.0618 v 4.3557 H 279.362 v -4.3234 l 1.0976,-0.0916 c 1.2257,-0.1023 3.1657,-0.413 3.9696,-1.4754 0.9578,-1.2657 1.0083,-6.5098 1.0083,-8.0532 v -30.1397 c 0,-1.2673 0.0227,-4.4524 -0.413,-5.6514 -0.2401,-0.7078 -0.6191,-1.3893 -1.2422,-1.8272 -0.7591,-0.5332 -2.4505,-0.7654 -3.3497,-0.8612 l -1.0706,-0.1137 v -4.2987 h 24.6671 z m 51.893,-9.6432 h 12.8659 v 8.1122 H 355.953 v 32.4167 c 0,1.3609 -0.0383,4.4479 0.3849,5.747 0.201,0.6599 0.5692,1.1843 1.114,1.6041 0.3289,0.2531 0.8592,0.6049 1.2949,0.6049 2.7224,0 4.8742,-3.052 6.0962,-5.1281 l 0.669,-1.1367 3.583,2.6059 -0.3708,0.8756 c -3.0722,7.2524 -8.3055,11.8488 -16.3905,11.8488 -3.5056,0 -6.7646,-0.9275 -9.5085,-3.1453 -2.2916,-1.8525 -4.1624,-4.165 -4.9669,-7.0416 -0.3243,-1.1596 -0.4045,-2.7334 -0.47,-3.9356 -0.1287,-2.361 -0.1499,-4.7441 -0.1499,-7.1082 v -28.2075 h -7.1476 v -3.8633 l 0.5077,-0.3575 c 4.4518,-3.1362 8.6737,-6.6787 12.3296,-10.724 3.4466,-3.8143 6.3941,-8.0428 8.8506,-12.5564 l 0.3399,-0.6247 h 3.8344 z M 511.1969,330.459 v 68.8618 c 0,1.4953 0.0799,5.4658 1.0644,6.6691 0.9196,1.0797 3.1722,1.3492 4.4816,1.4281 l 1.125,0.0677 v 4.3492 h -32.057 v -4.3812 l 1.1583,-0.0374 c 1.6628,-0.0539 3.4707,-0.4201 4.6224,-1.7215 0.8269,-0.9343 0.8907,-5.186 0.8907,-6.374 v -56.3477 c 0,-1.4938 -0.076,-5.4439 -1.0911,-6.6577 -0.9119,-1.0899 -3.1453,-1.3601 -4.4555,-1.4394 l -1.1248,-0.0681 v -4.3489 z m 28.0533,52.1895 c 0.4221,5.425 1.8794,10.8825 5.4219,15.1314 2.2966,2.7547 5.1244,4.394 8.7497,4.394 2.0829,0 3.9591,-0.5729 5.6823,-1.7399 2.2578,-1.5288 4.3208,-4.3833 5.7804,-6.6464 l 0.6557,-1.0165 3.8752,2.5577 -0.4652,0.9462 c -2.3706,4.8211 -5.678,10.0408 -10.1588,13.1612 -3.9112,2.7238 -8.3361,3.9473 -13.0932,3.9473 -8.1045,0 -14.7691,-3.0263 -19.3204,-9.8229 -3.8304,-5.7203 -5.2058,-12.4492 -5.2058,-19.2501 0,-8.2525 2.0032,-16.2244 7.6799,-22.4294 4.8722,-5.326 10.868,-8.4305 18.1369,-8.4305 6.1234,0 11.16,2.6237 15.2255,7.1475 5.0255,5.5925 6.5965,13.5173 6.8578,20.8106 l 0.0445,1.2398 z m 64.641,22.1318 c -4.7795,3.9691 -10.866,7.7695 -17.0938,7.7695 -3.3159,0 -6.2401,-1.0619 -8.6054,-3.4041 -2.3371,-2.3145 -3.4322,-5.2161 -3.4322,-8.4949 0,-4.8419 2.2422,-8.8271 5.7436,-12.0756 2.4681,-2.2898 5.8209,-4.3021 8.742,-5.9564 4.6007,-2.6056 9.4182,-4.9417 14.224,-7.1564 v -4.6927 c 0,-1.5531 0.0122,-5.868 -0.5814,-7.2794 -0.4019,-0.9558 -1.2206,-1.6877 -2.0795,-2.2331 -1.0856,-0.6894 -2.2827,-1.0046 -3.5676,-1.0046 -1.9443,0 -3.9462,0.3495 -5.573,1.4748 -0.4983,0.3447 -0.9929,0.8093 -0.9929,1.4579 0,0.6644 0.915,1.7609 1.3252,2.2221 1.3895,1.5619 2.5066,3.4724 2.5066,5.6205 0,2.2504 -0.8614,4.1797 -2.503,5.7178 -1.7603,1.6494 -3.969,2.3289 -6.3581,2.3289 -2.6053,0 -4.9776,-0.7648 -6.9315,-2.5072 -1.7986,-1.6036 -2.8823,-3.625 -2.8823,-6.056 0,-3.3627 1.4261,-6.2903 3.6116,-8.7894 2.5977,-2.9704 6.0676,-4.9118 9.7648,-6.1812 4.1173,-1.4136 8.3849,-2.0902 12.7383,-2.0902 4.4998,0 9.237,0.8058 12.9535,3.5044 2.7009,1.961 5.1645,4.472 6.291,7.7023 0.4223,1.283 0.5666,2.9639 0.6647,4.3076 0.176,2.4077 0.2092,4.8514 0.2092,7.2649 v 21.0656 c 0,0.9607 -0.0357,3.4155 0.2435,4.3087 0.089,0.2849 0.2369,0.6585 0.4493,0.8291 0.1885,0.1412 0.3753,0.2172 0.612,0.2172 0.8419,0 1.7282,-1.0214 2.1894,-1.6189 l 0.7317,-0.9485 3.5838,2.7698 -0.629,0.9306 c -1.6923,2.5038 -3.8081,4.9983 -6.3918,6.6177 -2.3412,1.4675 -4.9431,2.1487 -7.704,2.1487 -2.8565,0 -5.8091,-0.5873 -8.0541,-2.4625 -1.6747,-1.3986 -2.6578,-3.2709 -3.2046,-5.307 z m 53.7931,-34.9021 v 28.9661 c 0,1.4615 0.057,5.8059 0.9164,7.0387 0.7101,1.0185 2.2553,1.3884 3.407,1.5435 l 1.0372,0.1397 v 4.2687 h -29.9126 v -4.3007 l 1.0726,-0.112 c 1.4304,-0.1494 3.1136,-0.557 4.0453,-1.7501 0.6769,-0.8671 0.7195,-5.728 0.7195,-6.8278 V 367.99 c 0,-1.3788 -0.0564,-5.9119 -0.898,-7.0526 -0.7365,-0.9981 -2.7661,-1.3779 -3.9005,-1.5293 l -1.0389,-0.1386 v -4.2701 h 24.552 v 5.3048 c 1.8958,-1.8026 3.992,-3.4541 6.2594,-4.667 2.7477,-1.4695 5.6889,-2.1866 8.8045,-2.1866 3.5314,0 6.8278,0.9192 9.549,3.2218 2.4922,2.109 4.1738,4.7588 5.0281,7.9067 0.4334,1.5976 0.6092,3.4327 0.7316,5.0805 0.1965,2.6473 0.2433,5.326 0.2433,7.9798 v 21.2049 c 0,1.4009 0.0513,5.9533 0.9011,7.1164 0.7225,0.9887 2.7618,1.3328 3.8778,1.4629 l 1.0582,0.1236 v 4.2877 h -29.9126 v -4.2687 l 1.0372,-0.1397 c 1.4544,-0.1959 2.7705,-0.7325 3.5739,-2.0118 0.705,-1.1225 0.7497,-5.2605 0.7497,-6.5704 v -24.2229 c 0,-1.7915 -0.0175,-3.6014 -0.1269,-5.3901 -0.0485,-0.7931 -0.1112,-1.9434 -0.3391,-2.7051 -0.2503,-0.8368 -0.6545,-1.5761 -1.3527,-2.1163 -0.6049,-0.468 -1.2628,-0.7028 -2.0273,-0.7028 -3.5719,0 -6.3091,3.3764 -8.0552,6.1711 z m -408.1042,27.8166 v -15.4131 c -3.1193,2.0041 -6.1665,4.4518 -8.3192,7.4004 -1.2092,1.6566 -2.0332,3.5502 -2.0332,5.6279 0,1.5225 0.5598,2.7806 1.6001,3.8846 0.8535,0.9063 1.9814,1.1923 3.1989,1.1923 1.9327,0 4.0448,-1.4383 5.5534,-2.6921 z M 552.38,376.4424 c -0.0139,-2.1997 -0.0714,-4.4133 -0.2426,-6.6005 -0.1179,-1.508 -0.2886,-3.2553 -0.7177,-4.7101 -0.5194,-1.7611 -1.3703,-3.5024 -2.799,-4.7035 -0.7021,-0.5902 -1.6089,-0.7716 -2.5055,-0.7716 -1.7694,0 -2.9979,0.9853 -3.9441,2.4205 -2.5628,3.8869 -3.2375,8.9788 -3.2375,13.5369 v 0.8283 z m 51.0894,21.2524 v -15.4131 c -3.1192,2.0041 -6.1665,4.4518 -8.3191,7.4004 -1.2093,1.6566 -2.0333,3.5502 -2.0333,5.6279 0,1.5225 0.5599,2.7806 1.6002,3.8846 0.8535,0.9063 1.9814,1.1923 3.1989,1.1923 1.9326,0 4.0447,-1.4383 5.5533,-2.6921 z"
     style="fill:#202f85;fill-rule:evenodd"
     id="path2"
     inkscape:connector-curvature="0" />
  <path
     d="m 107.2083,329.8691 0.5955,26.3274 h -2.3825 c -1.1319,-6.592 -3.8914,-11.8931 -8.2993,-15.9038 -4.4277,-4.0105 -9.1927,-6.016 -14.3152,-6.016 -3.9708,0 -7.1079,1.0525 -9.411,3.1768 -2.323,2.1047 -3.4747,4.5468 -3.4747,7.2868 0,1.7472 0.4169,3.2958 1.2311,4.6658 1.1117,1.8068 2.9185,3.6136 5.4204,5.4005 1.8266,1.2705 6.0358,3.5538 12.6275,6.81 9.2522,4.5269 15.4865,8.8155 18.703,12.846 3.1966,4.0306 4.7851,8.6369 4.7851,13.8388 0,6.5917 -2.5812,12.2502 -7.7235,16.9954 -5.1424,4.7455 -11.6745,7.128 -19.5965,7.128 -2.482,0 -4.8447,-0.2582 -7.0486,-0.7546 -2.2235,-0.4963 -5.0032,-1.4493 -8.339,-2.859 -1.8663,-0.7744 -3.3951,-1.1515 -4.606,-1.1515 -1.0128,0 -2.0651,0.3969 -3.1966,1.1713 -1.1319,0.7943 -2.0452,1.9854 -2.74,3.5938 h -2.0254 v -29.7819 h 2.0254 c 1.7073,8.3588 5.0034,14.7517 9.8677,19.1398 4.8843,4.3877 10.1259,6.5917 15.7646,6.5917 4.348,0 7.8227,-1.1912 10.4037,-3.5541 2.5812,-2.3627 3.8718,-5.1027 3.8718,-8.2593 0,-1.8465 -0.4963,-3.6533 -1.489,-5.4006 -0.993,-1.7473 -2.482,-3.395 -4.5071,-4.9836 -2.0251,-1.5684 -5.599,-3.6136 -10.7215,-6.135 -7.1875,-3.5144 -12.3497,-6.5322 -15.4868,-9.0139 -3.117,-2.482 -5.5196,-5.2617 -7.2071,-8.3191 -1.6877,-3.0776 -2.5217,-6.4528 -2.5217,-10.1259 0,-6.2941 2.3032,-11.6547 6.9293,-16.0824 4.6063,-4.4274 10.4239,-6.6314 17.4524,-6.6314 2.5611,0 5.0431,0.2977 7.4454,0.9134 1.8267,0.4765 4.0505,1.3303 6.6711,2.5809 2.6209,1.2509 4.4476,1.8663 5.4998,1.8663 1.0125,0 1.8068,-0.2976 2.3825,-0.9133 0.576,-0.6154 1.1319,-2.1044 1.6282,-4.4473 z m 370.8451,0 v 27.3994 h -2.2632 c -1.7076,-7.1875 -4.8646,-12.7071 -9.5105,-16.539 -4.646,-3.8319 -9.9074,-5.7379 -15.7845,-5.7379 -4.9042,0 -9.411,1.4097 -13.521,4.2489 -4.0901,2.8392 -7.088,6.552 -8.9943,11.1384 -2.442,5.8771 -3.653,12.4093 -3.653,19.5965 0,7.0685 0.8932,13.521 2.6603,19.3385 1.787,5.7977 4.5666,10.2053 8.3588,13.1635 3.7922,2.9784 8.7163,4.4675 14.7521,4.4675 4.9637,0 9.4907,-1.092 13.6202,-3.2562 4.1099,-2.1841 8.4583,-5.9168 13.0249,-11.2377 v 6.7901 c -4.4079,4.6262 -9.0142,7.9818 -13.7991,10.0664 -4.7851,2.0849 -10.3643,3.1173 -16.7573,3.1173 -8.4183,0 -15.8839,-1.6878 -22.3962,-5.063 -6.5322,-3.3752 -11.5753,-8.2397 -15.1092,-14.5533 -3.5541,-6.3338 -5.3212,-13.0646 -5.3212,-20.2122 0,-7.5248 1.9658,-14.6727 5.8969,-21.4231 3.9311,-6.7507 9.2324,-11.9923 15.9233,-15.7249 6.6713,-3.7128 13.7594,-5.5792 21.2842,-5.5792 5.5395,0 11.3769,1.211 17.5317,3.6136 3.574,1.4097 5.8374,2.1045 6.7904,2.1045 1.2507,0 2.323,-0.4567 3.2364,-1.37 0.9133,-0.9133 1.489,-2.3627 1.7671,-4.3481 z m -333.995,26.3274 v 7.2467 c 2.9784,-3.276 5.7382,-5.5394 8.2794,-6.8499 2.5416,-1.2903 5.3212,-1.9457 8.339,-1.9457 3.4945,0 6.4131,0.8141 8.7956,2.4421 2.3627,1.6282 4.1695,4.1099 5.4601,7.4457 3.0974,-3.4945 6.0953,-6.0159 8.9345,-7.5648 2.859,-1.5486 5.8374,-2.323 8.9547,-2.323 3.7525,0 6.7702,0.8538 8.994,2.5813 2.2436,1.7274 3.7922,3.931 4.6658,6.5916 0.8737,2.6606 1.3105,6.8896 1.3105,12.7267 v 22.2971 c 0,4.1893 0.3773,6.7901 1.1316,7.7828 0.7347,1.0128 2.323,1.6679 4.7055,1.9857 v 2.025 h -28.114 v -2.025 c 2.2238,-0.1988 3.8517,-1.0525 4.9039,-2.5614 0.6951,-1.0523 1.0525,-3.4546 1.0525,-7.2071 v -23.4088 c 0,-4.8643 -0.1987,-7.9418 -0.576,-9.2721 -0.3968,-1.3105 -1.0125,-2.2833 -1.8465,-2.9384 -0.8336,-0.6356 -1.8065,-0.953 -2.9384,-0.953 -1.6679,0 -3.3553,0.6154 -5.0629,1.8266 -1.7076,1.2308 -3.4348,3.0575 -5.182,5.4995 v 29.2462 c 0,3.9112 0.3177,6.3731 0.9728,7.3857 0.8935,1.4297 2.6011,2.2237 5.1027,2.3828 v 2.025 h -28.1143 v -2.025 c 1.4893,-0.0797 2.6804,-0.4567 3.554,-1.1319 0.8538,-0.6749 1.4494,-1.4891 1.7275,-2.4421 0.2976,-0.953 0.4368,-3.018 0.4368,-6.1945 v -23.4485 c 0,-4.9439 -0.1987,-8.041 -0.5757,-9.2721 -0.3972,-1.2509 -1.0327,-2.2238 -1.946,-2.9186 -0.9133,-0.695 -1.8862,-1.0525 -2.9384,-1.0525 -1.5486,0 -2.9582,0.417 -4.229,1.2311 -1.8267,1.2113 -3.7525,3.276 -5.7977,6.2144 v 29.2462 c 0,3.8319 0.3773,6.3731 1.1319,7.5844 0.7344,1.231 2.323,1.9457 4.7055,2.1841 v 2.025 h -27.995 v -2.025 c 2.2632,-0.2384 3.8914,-0.9729 4.8444,-2.204 0.6551,-0.8538 0.9927,-3.3752 0.9927,-7.5645 V 367.99 c 0,-4.1496 -0.3773,-6.7507 -1.1316,-7.7632 -0.7546,-1.0324 -2.323,-1.6875 -4.7055,-2.0053 v -2.025 z m 106.7187,46.3408 c -6.6313,5.8767 -12.6076,8.8154 -17.869,8.8154 -3.1173,0 -5.6982,-1.0128 -7.7632,-3.0577 -2.045,-2.0251 -3.0773,-4.5865 -3.0773,-7.6442 0,-4.1494 1.7866,-7.8823 5.3606,-11.198 3.5739,-3.3157 11.357,-7.7233 23.3489,-13.223 v -5.4601 c 0,-4.0901 -0.2182,-6.6711 -0.6749,-7.7434 -0.4368,-1.0523 -1.2906,-1.9854 -2.5413,-2.7797 -1.2509,-0.794 -2.6606,-1.1911 -4.2094,-1.1911 -2.5413,0 -4.6261,0.5559 -6.2541,1.6875 -1.0125,0.695 -1.5089,1.5091 -1.5089,2.4423 0,0.8138 0.5361,1.8068 1.628,3.0178 1.4692,1.6679 2.2039,3.276 2.2039,4.8248 0,1.8862 -0.695,3.5141 -2.1246,4.8444 -1.4096,1.3303 -3.2561,2.0052 -5.5394,2.0052 -2.4421,0 -4.487,-0.7344 -6.135,-2.2036 -1.6478,-1.4695 -2.4818,-3.1966 -2.4818,-5.1625 0,-2.7995 1.1118,-5.4598 3.3157,-8.0013 2.2238,-2.5214 5.3011,-4.4671 9.2523,-5.8371 3.971,-1.3502 8.0807,-2.0254 12.3497,-2.0254 5.1622,0 9.2523,1.0922 12.2502,3.276 3.018,2.1841 4.9637,4.5468 5.8572,7.1082 0.5361,1.6279 0.8139,5.3606 0.8139,11.198 v 21.0656 c 0,2.4622 0.0994,4.0306 0.2979,4.6659 0.1987,0.6355 0.4765,1.112 0.8736,1.4295 0.3971,0.2979 0.834,0.4566 1.3303,0.4566 1.0324,0 2.0648,-0.6947 3.1371,-2.0846 l 1.747,1.3502 c -1.9457,2.8788 -3.9509,4.9836 -6.0358,6.2739 -2.0648,1.3105 -4.4274,1.9658 -7.0682,1.9658 -3.0974,0 -5.5395,-0.7347 -7.2867,-2.1841 -1.747,-1.4692 -2.7995,-3.6731 -3.1967,-6.6313 z m 0,-4.2889 V 380.141 c -4.6856,2.7598 -8.1799,5.6985 -10.4831,8.8353 -1.5088,2.0849 -2.2634,4.2092 -2.2634,6.3337 0,1.787 0.6352,3.3554 1.9258,4.7056 0.9729,1.0522 2.323,1.5684 4.0703,1.5684 1.9457,0 4.1893,-1.1118 6.7504,-3.3356 z m 52.0589,-42.0519 0.0397,12.3891 c 3.5739,-5.6189 6.7308,-9.3515 9.4311,-11.1782 2.7003,-1.8465 5.3011,-2.7598 7.8029,-2.7598 2.164,0 3.9113,0.6752 5.2019,2.0055 1.2906,1.33 1.9457,3.2162 1.9457,5.6586 0,2.5809 -0.6353,4.6063 -1.8862,6.0358 -1.2509,1.4295 -2.7598,2.1441 -4.5468,2.1441 -2.0449,0 -3.812,-0.6551 -5.301,-1.9656 -1.5092,-1.3303 -2.4027,-2.0647 -2.6606,-2.2039 -0.3972,-0.2381 -0.834,-0.3572 -1.3303,-0.3572 -1.1118,0 -2.1841,0.417 -3.1768,1.2705 -1.5883,1.3303 -2.7797,3.2165 -3.5938,5.6588 -1.2308,3.7525 -1.8465,7.9022 -1.8465,12.4487 l 0.04,12.4886 v 3.276 c 0,2.2237 0.1389,3.6533 0.4167,4.2888 0.4567,1.0522 1.1517,1.8266 2.065,2.3031 0.9332,0.4964 2.4818,0.794 4.6659,0.9134 v 2.025 h -29.5438 v -2.025 c 2.3825,-0.1988 3.9909,-0.8538 4.8248,-1.946 0.8337,-1.1118 1.2507,-4.0303 1.2507,-8.7755 v -30.1397 c 0,-3.1566 -0.1588,-5.1622 -0.4766,-6.0358 -0.377,-1.1117 -0.953,-1.906 -1.6874,-2.4222 -0.7348,-0.5162 -2.0452,-0.8736 -3.9115,-1.0721 v -2.025 z m 51.9199,-20.0138 v 20.0138 h 12.8659 v 5.718 h -12.8659 v 33.6138 c 0,3.157 0.1392,5.1823 0.4368,6.0956 0.2781,0.9134 0.7943,1.6478 1.5287,2.2037 0.7348,0.576 1.41,0.8538 2.0254,0.8538 2.5214,0 4.8841,-1.906 7.1277,-5.7181 l 1.7473,1.2708 c -3.1371,7.4058 -8.2398,11.1186 -15.2881,11.1186 -3.4546,0 -6.3734,-0.9533 -8.7559,-2.8791 -2.3826,-1.9259 -3.9113,-4.07 -4.5667,-6.433 -0.3772,-1.33 -0.5757,-4.9039 -0.5757,-10.7215 v -29.4046 h -7.1475 v -2.0452 c 4.9039,-3.4546 9.0734,-7.088 12.5283,-10.9 3.4347,-3.8121 6.4527,-8.0808 9.0138,-12.7866 z m 155.2439,-4.5266 v 67.6647 c 0,3.8715 0.4567,6.3533 1.3502,7.4455 0.9133,1.072 2.6801,1.6874 5.3209,1.8465 v 2.025 H 487.008 v -2.025 c 2.4619,-0.0797 4.2885,-0.7745 5.4799,-2.1246 0.7943,-0.8935 1.1914,-3.2959 1.1914,-7.1674 v -56.3477 c 0,-3.8715 -0.4566,-6.3337 -1.3699,-7.4256 -0.9134,-1.0919 -2.6805,-1.7076 -5.3014,-1.8663 v -2.0251 z m 57.8761,49.7954 h -29.901 c 0.3572,7.2073 2.2833,12.9055 5.7776,17.0949 2.6804,3.2164 5.8969,4.8245 9.6693,4.8245 2.3428,0 4.4475,-0.6551 6.3535,-1.9457 1.9061,-1.2906 3.951,-3.6334 6.1152,-6.9888 l 1.9854,1.3105 c -2.9384,5.9762 -6.2144,10.2251 -9.7685,12.7068 -3.5739,2.482 -7.7034,3.7327 -12.4092,3.7327 -8.0609,0 -14.1761,-3.0971 -18.3257,-9.292 -3.3355,-4.9833 -5.0034,-11.1781 -5.0034,-18.5839 0,-9.0536 2.4619,-16.261 7.3661,-21.6216 4.9039,-5.3608 10.6619,-8.0413 17.2536,-8.0413 5.4998,0 10.2847,2.2436 14.3351,6.7507 4.0504,4.5071 6.2345,11.198 6.552,20.0532 z m -14.2954,-3.8121 c 0,-6.2345 -0.3373,-10.523 -1.0125,-12.846 -0.6948,-2.323 -1.7473,-4.0901 -3.1768,-5.2812 -0.8138,-0.6951 -1.906,-1.0525 -3.276,-1.0525 -2.0052,0 -3.6533,0.9929 -4.9436,2.9585 -2.2833,3.4546 -3.4351,8.1799 -3.4351,14.1959 v 2.0253 z m 51.086,24.8979 c -6.6314,5.8767 -12.6077,8.8154 -17.8691,8.8154 -3.1172,0 -5.6982,-1.0128 -7.7632,-3.0577 -2.0449,-2.0251 -3.0773,-4.5865 -3.0773,-7.6442 0,-4.1494 1.7867,-7.8823 5.3606,-11.198 3.5739,-3.3157 11.357,-7.7233 23.349,-13.223 v -5.4601 c 0,-4.0901 -0.2183,-6.6711 -0.6749,-7.7434 -0.4369,-1.0523 -1.2907,-1.9854 -2.5413,-2.7797 -1.2509,-0.794 -2.6606,-1.1911 -4.2094,-1.1911 -2.5413,0 -4.6262,0.5559 -6.2541,1.6875 -1.0126,0.695 -1.5089,1.5091 -1.5089,2.4423 0,0.8138 0.536,1.8068 1.6279,3.0178 1.4692,1.6679 2.204,3.276 2.204,4.8248 0,1.8862 -0.6951,3.5141 -2.1246,4.8444 -1.4097,1.3303 -3.2562,2.0052 -5.5395,2.0052 -2.442,0 -4.4869,-0.7344 -6.135,-2.2036 -1.6478,-1.4695 -2.4817,-3.1966 -2.4817,-5.1625 0,-2.7995 1.1117,-5.4598 3.3157,-8.0013 2.2237,-2.5214 5.301,-4.4671 9.2522,-5.8371 3.9711,-1.3502 8.0808,-2.0254 12.3497,-2.0254 5.1622,0 9.2523,1.0922 12.2503,3.276 3.018,2.1841 4.9637,4.5468 5.8572,7.1082 0.536,1.6279 0.8138,5.3606 0.8138,11.198 v 21.0656 c 0,2.4622 0.0995,4.0306 0.2979,4.6659 0.1987,0.6355 0.4765,1.112 0.8737,1.4295 0.3971,0.2979 0.8339,0.4566 1.3303,0.4566 1.0323,0 2.0647,-0.6947 3.1371,-2.0846 l 1.747,1.3502 c -1.9457,2.8788 -3.951,4.9836 -6.0359,6.2739 -2.0647,1.3105 -4.4274,1.9658 -7.0681,1.9658 -3.0975,0 -5.5395,-0.7347 -7.2868,-2.1841 -1.747,-1.4692 -2.7995,-3.6731 -3.1966,-6.6313 z m 0,-4.2889 V 380.141 c -4.6857,2.7598 -8.1799,5.6985 -10.4831,8.8353 -1.5089,2.0849 -2.2635,4.2092 -2.2635,6.3337 0,1.787 0.6353,3.3554 1.9259,4.7056 0.9728,1.0522 2.323,1.5684 4.0703,1.5684 1.9457,0 4.1893,-1.1118 6.7504,-3.3356 z m 51.8207,-42.0519 v 7.0285 c 2.7797,-2.9982 5.4601,-5.1622 8.0212,-6.5322 2.5614,-1.37 5.3014,-2.0452 8.2398,-2.0452 3.5339,0 6.4527,0.9729 8.7757,2.9387 2.323,1.9655 3.8716,4.4076 4.646,7.3063 0.6154,2.2238 0.9332,6.4726 0.9332,12.7468 v 21.2049 c 0,4.1893 0.3773,6.7901 1.1316,7.8225 0.7546,1.0326 2.323,1.6679 4.7055,1.946 v 2.025 h -27.5185 v -2.025 c 2.0651,-0.2781 3.5343,-1.1319 4.4277,-2.5614 0.6155,-0.9729 0.9332,-3.3752 0.9332,-7.2071 v -24.2229 c 0,-4.4671 -0.1789,-7.2865 -0.5162,-8.4382 -0.3574,-1.1713 -0.9331,-2.0647 -1.7671,-2.7201 -0.8339,-0.6353 -1.7473,-0.953 -2.7598,-0.953 -3.3157,0 -6.3933,2.3428 -9.2523,7.0285 v 29.3057 c 0,4.07 0.3773,6.6512 1.1316,7.7233 0.7546,1.0921 2.1643,1.7671 4.229,2.0452 v 2.025 h -27.5184 v -2.025 c 2.2833,-0.2384 3.8914,-0.9729 4.8642,-2.204 0.6554,-0.8538 0.9731,-3.3752 0.9731,-7.5645 V 367.99 c 0,-4.1496 -0.3773,-6.7507 -1.1318,-7.7632 -0.7543,-1.0324 -2.323,-1.6875 -4.7055,-2.0053 v -2.025 z"
     style="fill:#202f85;fill-rule:evenodd"
     id="path4"
     inkscape:connector-curvature="0" />
  <path
     d="m 271.2342,315.1471 c 4.2883,4.2191 7.9339,2.4747 19.9749,2.3695 242.4532,-2.1115 169.3443,15.6654 170.2063,-50.8632 0.4195,-32.4099 -38.7204,-19.148 -67.0768,-21.6779 -0.6094,-5.3737 0.2254,-8.6525 -1.6974,-13.1103 -3.4903,-8.0915 -2.4741,0.5959 -4.8781,-7.8264 L 387.4122,82.0877 c 0.028,-18.1282 1.5542,-38.2893 -18.1302,-38.0795 -20.4451,0.2182 -17.3814,21.1546 -17.3712,39.9826 l 0.003,114.1974 c 0.004,43.3035 -1.0324,21.0388 -5.8864,35.5153 -1.1625,3.4685 -0.9006,7.6235 -1.2501,11.3919 -26.2154,1.2622 -66.8871,-9.0238 -66.8871,19.7076 0,35.2992 -15.7136,42.8402 -6.6558,50.3441 z m 45.625,-7.9704 c 12.1323,-0.1438 10.0883,3.1456 10.9384,-10.1861 0.4337,-6.7878 1.1639,-13.8288 0.5235,-20.4511 -8.4671,0.8085 -8.6306,4.6279 -11.4619,30.6372 z m 97.7763,-0.3172 10.459,0.1102 c -1.0346,-6.5239 -2.1067,-12.3188 -3.2193,-18.7222 -1.766,-10.1648 0.068,-11.4911 -8.6094,-11.4849 z m -49.9274,0.4487 9.9167,-0.0207 -2.6765,-31.1474 c -6.6708,2.5016 -5.3603,2.1277 -6.0245,10.4769 -0.5485,6.8808 -1.0187,13.7959 -1.2157,20.6912 z m 85.5765,0.0652 c -1.2804,-8.1553 -2.8477,-10.8009 -5.1236,-18.7948 -2.9866,-10.4928 -0.1667,-12.3509 -10.4763,-11.7114 0.4575,5.4995 2.1883,11.0478 3.5419,16.6082 3.0668,12.6006 0.2344,12.7338 12.058,13.898 z m -60.0511,-0.5139 10.459,0.1102 c -1.0352,-6.5239 -2.1067,-12.3188 -3.2199,-18.7222 -1.7654,-10.1648 0.0683,-11.4911 -8.6088,-11.4849 z m -101.5659,0.4487 c 11.5273,-0.7549 8.8636,0.4929 11.7635,-11.4472 1.6752,-6.8964 3.7661,-12.5742 3.7063,-19.2826 -9.713,0.335 -10.1189,7.0211 -15.4698,30.7298 z m 50.0255,-0.1315 c 12.1317,-0.1438 10.0882,3.1456 10.9386,-10.1861 0.4332,-6.7878 1.1639,-13.8288 0.523,-20.4511 -8.4674,0.8085 -8.6309,4.6279 -11.4616,30.6372 z M 367.854,53.1366 h 2.8346 c 3.1181,0 5.6693,2.5511 5.6693,5.6693 V 223.2153 H 362.1847 V 58.8059 c 0,-3.1182 2.5511,-5.6693 5.6693,-5.6693 z"
     style="fill:#202f85;fill-rule:evenodd"
     id="path6"
     inkscape:connector-curvature="0" />
  <path
     d="m 257.0669,126.536 h 26.2956 c 2.2533,0 4.0966,1.8434 4.0966,4.0967 v 14.4686 h -30.3922 z m -11.296,73.7723 c -6.8718,6.5259 -10.6742,7.0857 -17.3906,14.957 -19.8283,23.239 -13.7874,82.5437 4.6225,102.1158 l 29.1277,0.1585 c -0.0944,-13.8538 3.2476,-18.4485 7.3051,-30.8279 4.3824,-13.3699 -0.0575,-20.6805 3.6304,-32.5151 6.2098,-19.929 34.2963,-15.5503 57.4083,-14.9746 1.008,-16.0064 -18.0893,-45.6554 -25.9707,-56.2323 -15.9041,-21.3426 -5.7957,-43.2604 -15.2155,-68.3609 7.7819,-1.188 15.4264,-0.4609 21.0994,-3.9376 6.3768,-10.1803 -8.3104,-21.0075 -15.3893,-24.8043 -17.3568,-9.3089 -39.4436,-5.4927 -59.419,-4.9056 -22.3155,0.6545 -15.4786,-0.6537 -17.7299,3.5858 -1.434,2.7 -1.2016,16.7448 0.3039,19.1639 2.7431,4.4085 11.7295,2.742 18.3756,2.9143 -2.1521,7.8625 -4.7291,14.0261 -8.7381,20.5489 -4.4461,7.2338 -10.0533,10.194 -8.6304,19.1696 15.6107,-1.235 22.5542,-17.8452 31.8751,-27.0028 -0.0536,7.0733 -1.8896,26.9206 -0.9309,30.539 1.8436,6.9602 4.3049,4.294 3.3528,10.9579 -2.7576,19.285 1.2172,6.319 -2.7312,26.7956 -2.0236,10.4939 2.8451,5.2473 -4.9552,12.6548 z"
     style="fill:#202f85;fill-rule:evenodd"
     id="path8"
     inkscape:connector-curvature="0" />
  <path
     d="m 409.4836,198.1879 c 0.1448,8.0258 0.7648,7.0175 10.9518,6.9376 6.4063,-0.0509 12.8027,-0.2174 19.2446,-0.2181 17.1866,-0.001 107.7405,2.2136 110.6767,-2.6053 5.7176,-9.3848 -22.9122,-6.3784 -28.835,-6.3672 -20.8167,0.0398 -104.5935,-2.5692 -112.0381,2.253 z m 124.0185,31.0324 c -15.0136,-3.1859 -17.5482,11.5051 -19.2886,26.3339 -0.8825,7.5146 -7.8754,41.2034 -3.8117,45.6515 15.8595,17.3623 23.4737,-70.4571 23.1003,-71.9854 z m -106.3294,-45.9644 105.5077,-0.025 c -9.468,-60.8874 -95.4308,-63.8853 -105.5077,0.025 z m -13.0403,-0.9041 c -13.7702,3.5119 -23.811,9.8139 -16.7752,25.6613 4.0878,9.2066 6.4244,2.6553 9.1987,13.6713 1.7663,7.0139 0.8739,9.7824 3.8039,17.4075 24.3941,0.5671 51.6415,-5.702 56.3887,17.4421 2.8244,13.7677 -1.5423,17.3346 4.2777,34.0459 4.4096,12.6594 5.3295,13.1759 5.7525,26.4047 12.2496,1.7999 46.7087,2.1829 55.2692,-3.5922 9.7177,-6.5547 10.8935,-32.1607 13.5825,-47.3362 1.6099,-9.0863 2.873,-16.9181 4.4443,-25.8627 0.8075,-4.5973 1.3798,-8.4408 2.1199,-13.0947 2.9223,-18.3694 6.9594,-8.6666 10.631,-20.0786 2.7253,-8.4697 0.6915,-17.0615 -7.5427,-21.5505 l -9.7802,-4.4112 c -10.5456,-75.2743 -118.5509,-79.0419 -131.3703,1.2933 z"
     style="fill:#202f85;fill-rule:evenodd"
     id="path10"
     inkscape:connector-curvature="0" />
  <path
     d="m 203.6964,173.882 c -4.2457,0 -7.6876,3.4418 -7.6876,7.6876 0,4.2458 3.4419,7.6876 7.6876,7.6876 4.2458,0 7.6877,-3.4418 7.6877,-7.6876 0,-4.2458 -3.4419,-7.6876 -7.6877,-7.6876 z"
     style="fill:#202f85;fill-rule:evenodd"
     id="path12"
     inkscape:connector-curvature="0" />
  <path
     d="m 317.4212,135.854 c -5.1372,0 -9.3017,4.1645 -9.3017,9.3017 0,5.1372 4.1645,9.3017 9.3017,9.3017 5.1372,0 9.3017,-4.1645 9.3017,-9.3017 0,-5.1372 -4.1645,-9.3017 -9.3017,-9.3017 z"
     style="fill:#202f85;fill-rule:evenodd"
     id="path14"
     inkscape:connector-curvature="0" />
  <path
     d="m 265.9005,31.2835 c -7.421,0 -13.4369,6.0159 -13.4369,13.4369 0,7.421 6.0159,13.4369 13.4369,13.4369 7.421,0 13.4369,-6.0159 13.4369,-13.4369 0,-7.421 -6.0159,-13.4369 -13.4369,-13.4369 z"
     style="fill:#202f85;fill-rule:evenodd"
     id="path16"
     inkscape:connector-curvature="0" />
  <path
     d="m 209.9168,91.0833 c -2.2437,1.6448 -16.2017,1.2003 -18.2015,0.2685 0.4162,-3.9847 3.8246,-2.6108 14.6381,-2.6129 2.2773,-6e-4 3.528,0.1356 3.5634,2.3444 z"
     style="fill:#202f85;fill-rule:evenodd"
     id="path18"
     inkscape:connector-curvature="0" />
  <path
     d="m 209.881,85.562 c -2.3391,1.5596 -5.3764,-0.7683 -8.8584,-2.3341 -3.0253,-1.4891 -6.6261,-1.9639 -6.627,-5.1718 2.5355,-1.4441 5.4463,0.876 8.2033,2.3104 5.8282,3.032 6.6757,2.2024 7.2821,5.1955 z"
     style="fill:#202f85;fill-rule:evenodd"
     id="path20"
     inkscape:connector-curvature="0" />
  <path
     d="m 194.3088,102.8371 c 0.3036,-3.0415 2.1256,-2.9046 6.8994,-5.1936 1.944,-0.9321 7.3601,-4.9852 8.6324,-2.2548 1.0375,2.2266 -13.199,8.7127 -15.5318,7.4484 z"
     style="fill:#202f85;fill-rule:evenodd"
     id="path22"
     inkscape:connector-curvature="0" />
</svg>
